<svg width="42" height="77" viewBox="0 0 42 77" fill="none" xmlns="http://www.w3.org/2000/svg">
<path d="M24.1047 19.6898C24.0509 19.5121 23.908 19.3782 23.7279 19.3385L17.2203 17.8725L20.1708 9.69788C20.2598 9.42811 20.117 9.13325 19.8478 9.04332C19.6656 8.98059 19.4648 9.02868 19.326 9.16462L8.32139 21.3858C8.1247 21.5887 8.13091 21.9149 8.33175 22.1136C8.40007 22.1805 8.48289 22.2265 8.57606 22.2474L14.9863 23.6904L12.2615 31.9278C12.1787 32.2017 12.3319 32.4903 12.6032 32.574C12.7833 32.6304 12.9821 32.5802 13.1146 32.4443L23.9888 20.1938C24.1151 20.06 24.1606 19.8676 24.1068 19.6898H24.1047Z" fill="white"/>
<path d="M42 21C42 9.4185 32.5815 0 21 0C9.4185 0 0 9.4185 0 21C0 31.388 7.581 40.0365 17.5 41.706V80.5C17.5 82.432 19.068 84 21 84C22.932 84 24.5 82.432 24.5 80.5V41.706C34.419 40.0365 42 31.388 42 21Z" fill="#45AAB8"/>
<path d="M28.48 11H13.28C12.6753 11 12.0954 11.2402 11.6678 11.6678C11.2402 12.0954 11 12.6753 11 13.28V27.72C11 28.3247 11.2402 28.9046 11.6678 29.3322C12.0954 29.7598 12.6753 30 13.28 30H28.48C29.0847 30 29.6646 29.7598 30.0922 29.3322C30.5198 28.9046 30.76 28.3247 30.76 27.72V13.28C30.76 12.6753 30.5198 12.0954 30.0922 11.6678C29.6646 11.2402 29.0847 11 28.48 11ZM29.24 27.72C29.24 27.9216 29.1599 28.1149 29.0174 28.2574C28.8749 28.3999 28.6816 28.48 28.48 28.48H13.28C13.0784 28.48 12.8851 28.3999 12.7426 28.2574C12.6001 28.1149 12.52 27.9216 12.52 27.72V13.28C12.52 13.0784 12.6001 12.8851 12.7426 12.7426C12.8851 12.6001 13.0784 12.52 13.28 12.52H28.48C28.6816 12.52 28.8749 12.6001 29.0174 12.7426C29.1599 12.8851 29.24 13.0784 29.24 13.28V27.72Z" fill="white"/>
<path d="M26.6471 19.0219C26.6471 19.5616 26.5159 20.1404 26.2567 20.7425C26.1737 20.9353 25.9847 21.0515 25.7854 21.0515C25.7183 21.0515 25.6502 21.0383 25.5846 21.0104C25.3239 20.9008 25.203 20.6025 25.3142 20.3448C25.5186 19.869 25.6225 19.4242 25.6225 19.0219C25.6225 17.6472 24.5668 16.4856 23.3174 16.4856C22.1725 16.4856 21.5204 16.9447 21.0809 17.3449L19.122 19.1452C18.9412 19.3247 18.8982 19.6266 19.0385 19.8198C19.1302 19.9461 19.2649 20.0222 19.4171 20.0344C19.5682 20.0481 19.7147 19.9933 19.8207 19.8873L21.9584 17.8608C22.1612 17.6675 22.4865 17.6741 22.6827 17.8765C22.8784 18.0789 22.8712 18.4 22.6668 18.5938L22.0327 19.1949L24.4643 21.3081C25.034 21.8032 25.1743 22.6346 24.7906 23.2418C24.5545 23.6152 24.1688 23.8662 23.7328 23.9297C23.7031 23.9337 23.6739 23.9373 23.6442 23.9398C23.6422 24.201 23.572 24.4597 23.428 24.688C23.1919 25.0614 22.8062 25.3124 22.3702 25.3759C22.2755 25.389 22.1812 25.3946 22.087 25.3901C22.0593 25.5838 21.9927 25.7725 21.8846 25.9435C21.6485 26.3168 21.2679 26.6471 20.6081 26.6471C20.2459 26.6471 19.8945 26.5177 19.6189 26.2778L18.0289 24.8656C16.3512 23.3641 14.3529 21.1326 14.3529 19.0219C14.3529 17.0639 15.8467 15.4711 17.6826 15.4711C18.1057 15.4711 18.5191 15.5563 18.9105 15.7247C19.1702 15.8363 19.2895 16.1351 19.1768 16.3918C19.0641 16.6484 18.7624 16.7661 18.5032 16.6555C18.241 16.5429 17.9648 16.4861 17.6821 16.4861C16.4327 16.4861 15.3769 17.6477 15.3769 19.0224C15.3769 20.3788 16.5618 22.1862 18.7143 24.1123L20.2992 25.5194C20.4001 25.6072 20.54 25.6477 20.6783 25.628C20.8186 25.6077 20.939 25.529 21.0163 25.4058C21.1342 25.2186 21.0758 24.9406 20.8826 24.7732L19.2398 23.2266C19.0355 23.0338 19.0267 22.7132 19.2209 22.5098C19.4156 22.3069 19.7393 22.2983 19.9447 22.4901L21.8513 24.2726C21.943 24.3517 22.0849 24.3933 22.2212 24.372C22.3615 24.3517 22.4819 24.2726 22.5593 24.1498C22.6771 23.9626 22.6187 23.6847 22.4256 23.5167L20.6019 21.8818C20.3929 21.6947 20.376 21.3746 20.5645 21.1671C20.7525 20.9596 21.0758 20.9414 21.2863 21.127L23.2032 22.8162C23.3056 22.9055 23.446 22.9471 23.5838 22.9258C23.7241 22.9055 23.8445 22.8264 23.9219 22.7036C24.0397 22.5164 23.9813 22.2385 23.7882 22.0705L21.2894 19.899L20.5364 20.6127C20.2254 20.9211 19.7864 21.0814 19.3336 21.0459C18.8838 21.0099 18.4725 20.7791 18.2061 20.4123C17.7733 19.8168 17.8609 18.958 18.41 18.4142L20.3847 16.5992C20.9185 16.1138 21.8006 15.4706 23.3164 15.4706C25.1523 15.4706 26.646 17.0634 26.646 19.0214L26.6471 19.0219Z" fill="white"/>
</svg>
