<svg width="42" height="77" viewBox="0 0 42 77" fill="none" xmlns="http://www.w3.org/2000/svg">
<path d="M24.1047 19.6898C24.0509 19.5121 23.908 19.3782 23.7279 19.3385L17.2203 17.8725L20.1708 9.69787C20.2598 9.4281 20.117 9.13323 19.8478 9.04331C19.6656 8.98057 19.4648 9.02867 19.326 9.1646L8.32139 21.3858C8.1247 21.5887 8.13091 21.9149 8.33175 22.1136C8.40007 22.1805 8.48289 22.2265 8.57606 22.2474L14.9863 23.6904L12.2615 31.9278C12.1787 32.2017 12.3319 32.4903 12.6032 32.5739C12.7833 32.6304 12.9821 32.5802 13.1146 32.4443L23.9888 20.1938C24.1151 20.06 24.1606 19.8676 24.1068 19.6898H24.1047Z" fill="white"/>
<path d="M42 21C42 9.4185 32.5815 0 21 0C9.4185 0 0 9.4185 0 21C0 31.388 7.581 40.0365 17.5 41.706V80.5C17.5 82.432 19.068 84 21 84C22.932 84 24.5 82.432 24.5 80.5V41.706C34.419 40.0365 42 31.388 42 21Z" fill="#3DCD58"/>
<path d="M28.4279 19.2319C28.3753 19.0583 28.2357 18.9276 28.0598 18.8888L21.7036 17.4569L24.5854 9.47233C24.6724 9.20884 24.5328 8.92083 24.2699 8.833C24.092 8.77172 23.8958 8.8187 23.7603 8.95147L13.0116 20.8885C12.8195 21.0866 12.8255 21.4052 13.0217 21.5993C13.0884 21.6647 13.1693 21.7096 13.2603 21.73L19.5215 23.1394L16.8601 31.1852C16.7792 31.4528 16.9289 31.7347 17.1938 31.8164C17.3697 31.8716 17.5639 31.8225 17.6933 31.6898L28.3146 19.7242C28.438 19.5935 28.4825 19.4055 28.4299 19.2319H28.4279Z" fill="white"/>
</svg>
