<svg width="42" height="77" viewBox="0 0 42 77" fill="none" xmlns="http://www.w3.org/2000/svg">
<path d="M42 21C42 9.4185 32.5815 0 21 0C9.4185 0 0 9.4185 0 21C0 31.388 7.581 40.0365 17.5 41.706V80.5C17.5 82.432 19.068 84 21 84C22.932 84 24.5 82.432 24.5 80.5V41.706C34.419 40.0365 42 31.388 42 21Z" fill="#8B83BA"/>
<path d="M31 18.0373C31 18.9548 30.776 19.9387 30.3333 20.9623C30.1915 21.29 29.8686 21.4875 29.5283 21.4875C29.4136 21.4875 29.2973 21.4651 29.1853 21.4176C28.7399 21.2314 28.5334 20.7243 28.7233 20.2863C29.0724 19.4774 29.25 18.7211 29.25 18.0373C29.25 15.7003 27.4466 13.7255 25.3125 13.7255C23.3569 13.7255 22.243 14.506 21.4922 15.1864L18.1463 18.2468C17.8374 18.5521 17.7639 19.0652 18.0036 19.3937C18.1603 19.6085 18.3904 19.7378 18.6502 19.7585C18.9084 19.7818 19.1586 19.6886 19.3397 19.5084L22.9911 16.0634C23.3376 15.7348 23.8932 15.746 24.2284 16.0901C24.5626 16.4342 24.5504 16.98 24.2012 17.3094L23.118 18.3313L27.2716 21.9238C28.2446 22.7655 28.4844 24.1789 27.829 25.2111C27.4256 25.8458 26.7668 26.2726 26.0221 26.3804C25.9714 26.3873 25.9215 26.3934 25.8708 26.3977C25.8673 26.8418 25.7474 27.2816 25.5015 27.6696C25.0981 28.3043 24.4393 28.7312 23.6946 28.839C23.5328 28.8614 23.3717 28.8709 23.2107 28.8631C23.1635 29.1925 23.0498 29.5133 22.8651 29.8039C22.4618 30.4386 21.8116 31 20.6846 31C20.066 31 19.4657 30.7801 18.995 30.3722L16.279 27.9715C13.4134 25.4189 10 21.6255 10 18.0373C10 14.7086 12.5515 12.0009 15.6875 12.0009C16.4102 12.0009 17.1164 12.1457 17.7849 12.432C18.2285 12.6217 18.4324 13.1297 18.2399 13.566C18.0474 14.0024 17.532 14.2024 17.0893 14.0144C16.6413 13.823 16.1696 13.7264 15.6866 13.7264C13.5525 13.7264 11.7491 15.7012 11.7491 18.0381C11.7491 20.344 13.773 23.4166 17.4497 26.6909L20.157 29.083C20.3294 29.2322 20.5682 29.3012 20.8045 29.2676C21.0442 29.2331 21.2499 29.0994 21.382 28.8898C21.5833 28.5716 21.4835 28.0991 21.1536 27.8145L18.3475 25.1852C17.9984 24.8575 17.9835 24.3125 18.3151 23.9667C18.6476 23.6218 19.2006 23.6071 19.5515 23.9331L22.8082 26.9634C22.9649 27.0979 23.2072 27.1686 23.44 27.1324C23.6797 27.0979 23.8854 26.9634 24.0175 26.7547C24.2188 26.4365 24.119 25.9639 23.7891 25.6785L20.6741 22.8992C20.3171 22.5809 20.2883 22.0368 20.6103 21.6841C20.9314 21.3314 21.4835 21.3004 21.8431 21.616L25.1174 24.4876C25.2924 24.6394 25.5321 24.7101 25.7675 24.6739C26.0073 24.6394 26.2129 24.5048 26.345 24.2961C26.5463 23.9779 26.4465 23.5054 26.1166 23.2199L21.8484 19.5283L20.5621 20.7416C20.031 21.2659 19.2811 21.5384 18.5076 21.478C17.7394 21.4168 17.0367 21.0244 16.5817 20.4009C15.8424 19.3886 15.992 17.9286 16.93 17.0042L20.3031 13.9187C21.2149 13.0935 22.7216 12 25.3107 12C28.4467 12 30.9982 14.7078 30.9982 18.0364L31 18.0373Z" fill="white"/>
</svg>
