<svg width="43" height="76" viewBox="0 0 43 76" fill="none" xmlns="http://www.w3.org/2000/svg">
<path d="M43 21.5C43 9.64275 33.3572 0 21.5 0C9.64275 0 0 9.64275 0 21.5C0 32.1353 7.7615 40.9898 17.9167 42.699V82.4167C17.9167 84.3947 19.522 86 21.5 86C23.478 86 25.0833 84.3947 25.0833 82.4167V42.699C35.2385 40.9898 43 32.1353 43 21.5Z" fill="#F8AE4E"/>
<path d="M29.1047 19.6898C29.0509 19.5121 28.908 19.3782 28.7279 19.3385L22.2203 17.8725L25.1708 9.69788C25.2598 9.42811 25.117 9.13325 24.8478 9.04332C24.6656 8.98059 24.4648 9.02868 24.326 9.16462L13.3214 21.3858C13.1247 21.5887 13.1309 21.9149 13.3317 22.1136C13.4001 22.1805 13.4829 22.2265 13.5761 22.2474L19.9863 23.6904L17.2615 31.9278C17.1787 32.2017 17.3319 32.4903 17.6032 32.574C17.7833 32.6304 17.9821 32.5802 18.1146 32.4443L28.9888 20.1938C29.1151 20.06 29.1606 19.8676 29.1068 19.6898H29.1047Z" fill="white"/>
</svg>
