<svg width="43" height="77" viewBox="0 0 43 77" fill="none" xmlns="http://www.w3.org/2000/svg">
<path d="M42.6936 21C42.6936 9.4185 33.1195 0 21.3468 0C9.57403 0 0 9.4185 0 21C0 31.388 7.70619 40.0365 17.789 41.706V80.5C17.789 82.432 19.3829 84 21.3468 84C23.3107 84 24.9046 82.432 24.9046 80.5V41.706C34.9874 40.0365 42.6936 31.388 42.6936 21Z" fill="#4E2583"/>
<path fill-rule="evenodd" clip-rule="evenodd" d="M21.2628 23.2151C19.8011 23.2151 18.6162 21.9998 18.6162 20.5006C18.6162 19.0014 19.8011 17.7861 21.2628 17.7861C22.7245 17.7861 23.9095 19.0014 23.9095 20.5006C23.9095 21.2205 23.6306 21.9109 23.1343 22.42C22.638 22.9291 21.9648 23.2151 21.2628 23.2151Z" stroke="white" stroke-width="1.5" stroke-linecap="round" stroke-linejoin="round"/>
<path fill-rule="evenodd" clip-rule="evenodd" d="M28.2993 26.0152V24.1938C28.2993 23.7427 28.4739 23.3102 28.7849 22.9912L30.0407 21.7032C30.6883 21.0391 30.6883 19.9623 30.0407 19.2982L28.7849 18.0102C28.4739 17.6912 28.2993 17.2587 28.2993 16.8076V14.9848C28.2993 14.0456 27.5568 13.2842 26.6411 13.2842H24.8639C24.4242 13.2842 24.0024 13.105 23.6914 12.7861L22.4356 11.4981C21.788 10.834 20.7382 10.834 20.0907 11.4981L18.8349 12.7861C18.5239 13.105 18.1022 13.2842 17.6624 13.2842H15.8852C15.4452 13.2842 15.0233 13.4636 14.7123 13.7828C14.4013 14.102 14.2268 14.5349 14.2271 14.9862V16.8076C14.2271 17.2587 14.0524 17.6912 13.7415 18.0102L12.4856 19.2982C11.8381 19.9623 11.8381 21.0391 12.4856 21.7032L13.7415 22.9912C14.0524 23.3102 14.2271 23.7427 14.2271 24.1938V26.0152C14.2271 26.9544 14.9695 27.7158 15.8852 27.7158H17.6624C18.1022 27.7158 18.5239 27.895 18.8349 28.2139L20.0907 29.5019C20.7382 30.166 21.788 30.166 22.4356 29.5019L23.6914 28.2139C24.0024 27.895 24.4242 27.7158 24.8639 27.7158H26.6398C27.0798 27.7162 27.5019 27.5372 27.8131 27.2181C28.1243 26.8991 28.2993 26.4665 28.2993 26.0152Z" stroke="white" stroke-width="1.5" stroke-linecap="round" stroke-linejoin="round"/>
</svg>
