<svg width="42" height="77" viewBox="0 0 42 77" fill="none" xmlns="http://www.w3.org/2000/svg">
<path d="M42 21C42 9.4185 32.5815 0 21 0C9.4185 0 0 9.4185 0 21C0 31.388 7.581 40.0365 17.5 41.706V80.5C17.5 82.432 19.068 84 21 84C22.932 84 24.5 82.432 24.5 80.5V41.706C34.419 40.0365 42 31.388 42 21Z" fill="#1467B0"/>
<path d="M27.64 13H14.04C13.499 13 12.9801 13.2149 12.5975 13.5975C12.2149 13.9801 12 14.499 12 15.04V27.96C12 28.501 12.2149 29.0199 12.5975 29.4025C12.9801 29.7851 13.499 30 14.04 30H27.64C28.181 30 28.6999 29.7851 29.0825 29.4025C29.4651 29.0199 29.68 28.501 29.68 27.96V15.04C29.68 14.499 29.4651 13.9801 29.0825 13.5975C28.6999 13.2149 28.181 13 27.64 13ZM28.32 27.96C28.32 28.1403 28.2484 28.3133 28.1208 28.4408C27.9933 28.5684 27.8203 28.64 27.64 28.64H14.04C13.8597 28.64 13.6867 28.5684 13.5592 28.4408C13.4316 28.3133 13.36 28.1403 13.36 27.96V15.04C13.36 14.8597 13.4316 14.6867 13.5592 14.5592C13.6867 14.4316 13.8597 14.36 14.04 14.36H27.64C27.8203 14.36 27.9933 14.4316 28.1208 14.5592C28.2484 14.6867 28.32 14.8597 28.32 15.04V27.96Z" fill="white"/>
<path d="M25.26 20.48C25.4404 20.48 25.6133 20.4084 25.7408 20.2809C25.8684 20.1533 25.94 19.9804 25.94 19.8C25.94 19.6197 25.8684 19.4467 25.7408 19.3192C25.6133 19.1917 25.4404 19.12 25.26 19.12H17.7222L18.5994 18.2394C18.7108 18.1094 18.769 17.942 18.7624 17.7709C18.7558 17.5997 18.6849 17.4374 18.5637 17.3163C18.4426 17.1952 18.2803 17.1242 18.1092 17.1176C17.938 17.111 17.7707 17.1692 17.6406 17.2806L15.6006 19.3206C15.5051 19.4155 15.4399 19.5366 15.4133 19.6685C15.3867 19.8005 15.3998 19.9374 15.451 20.0618C15.5028 20.1859 15.5901 20.2919 15.7021 20.3663C15.8141 20.4407 15.9456 20.4803 16.08 20.48H25.26Z" fill="white"/>
<path d="M25.94 22.8602H16.76C16.5796 22.8602 16.4066 22.9318 16.2791 23.0593C16.1516 23.1869 16.08 23.3598 16.08 23.5402C16.08 23.7205 16.1516 23.8935 16.2791 24.021C16.4066 24.1485 16.5796 24.2202 16.76 24.2202H24.2978L23.4206 25.1008C23.3494 25.1617 23.2916 25.2367 23.2507 25.3211C23.2099 25.4055 23.187 25.4974 23.1834 25.591C23.1798 25.6847 23.1955 25.778 23.2297 25.8653C23.2639 25.9526 23.3158 26.0318 23.382 26.0981C23.4483 26.1644 23.5276 26.2162 23.6148 26.2504C23.7021 26.2846 23.7955 26.3004 23.8891 26.2968C23.9828 26.2931 24.0747 26.2702 24.159 26.2294C24.2434 26.1886 24.3184 26.1308 24.3794 26.0596L26.4194 24.0196C26.5149 23.9247 26.58 23.8036 26.6067 23.6717C26.6333 23.5397 26.6202 23.4029 26.569 23.2784C26.5172 23.1543 26.4298 23.0483 26.3179 22.9739C26.2059 22.8995 26.0744 22.8599 25.94 22.8602Z" fill="white"/>
</svg>
